<?xml version="1.0" encoding="UTF-8"?>
<svg xmlns="http://www.w3.org/2000/svg" viewBox="0 0 746.52 404.29">
  <defs>
    <style>
      .cls-1 {
        fill: #732ce2;
      }

      .cls-2 {
        fill: #fff;
      }

      .cls-3 {
        fill: #732ce2;
      }

      .cls-4 {
        fill: #4c1d95;
      }
    </style>
  </defs>
  <rect class="cls-2" width="746.52" height="404.29"/>
  <g id="Layer_1" data-name="Layer 1">
    <g>
      <g id="Generative_Object" data-name="Generative Object">
        <g>
          <path class="cls-4" d="M215.01,22.53l-.73,149.35c-.02,4.56-3.74,8.25-8.3,8.22-2.48-.01-4.73-1.15-6.24-2.89-10.6-12.37-20.77-25.06-30.71-37.85-17.01-22.29-41.72-54.14-58.94-76.74,0,0-14.72-19.18-14.72-19.18-3.6-4.46-9.61-13.44-14.21-16.5,0,0,4.97,1.61,4.97,1.61,0,0-44.45.37-44.45.37l-2.77.02c-3.15,0-6.47,2.08-7.5,5-.08.15-.17.43-.2.6-.18.54-.23,1.13-.26,1.7,0,.05-.01.09-.01.23l-.04,5.56c-.06,20.81-.62,57.08-.6,77.73.57,31.27-.11,64.66.29,95.91-.03,4.34-.59,10.1.19,13.69,3.32,10.44-4.16,14.07-10.36,20.19-1.38,1.5-2.48,2.7-2.65,4.25.38,5.73,8.19,7,9.79,1.19.63-3.16-1.37-5.58-4.76-6.17-.97-.16-1.86-.48-2.67-.94-2.97-1.67-9.43-5.3-12.45-6.99,0,0,8.1-14.41,8.1-14.41,3.02,1.69,9.47,5.33,12.45,6.99,0,0-2.67-.94-2.67-.94,2.72.46,5.46,1.39,7.99,2.88,7.96,4.44,12.25,14.29,10.14,23.19-2.53,12.29-16.33,19.92-28.07,15.48-8.86-3.29-14.55-11.59-14.36-21,.2-5.96,3.56-11.28,7.31-15.04,2.4-2.52,5.2-4.57,7.33-6.78,0,0-.11.14-.13.21-.06.09-.13.22-.18.33,0,0-.18.46-.18.46-.08.22-.14.44-.18.67-.2.91-.18,1.98.1,2.91-1.5-5.07-1.69-11.2-1.38-16.38.07-1.55.12-3.68.11-5.18-.27-23.49-.07-48.89-.01-72.27-.65-29.88.22-70.06.32-100.1,0,0,.04-5.56.04-5.56,0,0,.02-.46.02-.46l.03-.54.07-1.07c.18-2.13.69-4.26,1.46-6.26,3.3-8.72,11.61-14.68,20.72-15.5,1.34-.14,46.68-.49,49.31-.5,1.86-.02,3.59.58,4.97,1.61,3.83,2.79,7.25,6.45,10.08,10.05,13.37,17.4,37.99,49.53,51.59,67.24,19.6,25.43,38.8,51.22,59.65,75.54,0,0-14.54,5.33-14.54,5.33,0,0,.73-149.35.73-149.35,0,0,.04-8.26.04-8.26,0,0,16.53.08,16.53.08,0,0-.04,8.26-.04,8.26h0Z"/>
          <path class="cls-4" d="M475.6,77.03c-2.47,0-4.92-1.11-6.55-3.22-22.63-29.36-59.31-45.25-100.58-43.63-.13,0-.27,0-.4,0l-56.73-.54c-4.56-.04-8.23-3.78-8.19-8.34.04-4.54,3.73-8.19,8.26-8.19.03,0,.05,0,.08,0l56.54.54c46.61-1.78,88.21,16.46,114.12,50.07,2.79,3.61,2.12,8.8-1.5,11.59-1.5,1.16-3.28,1.72-5.04,1.72Z"/>
          <path class="cls-4" d="M509.26,104.79c2.27,7.08,1.82,12.85,1.87,19.52.11,7.05-.99,15.4-1.46,22.35-2.18,55.62-40.89,107.36-95.37,121.45-9.24,2.47-18.85,3.6-28.41,3.72-6.16,0-80.63.23-88.81.24-5.25.02-9.49-4.32-9.36-9.56-.01-.03,0-195.63,0-195.65,0-4.89,3.8-8.9,8.58-9.3,6.71-.54,13.23-.94,19.85-1.29,20.01-.97,39.67-1.5,59.88-.18,12.22.94,25.44,2.17,36.76,8.44,25.93,12.88,44.49,37.14,47.8,66.18,3.88,33.02-13,66.09-43.68,79.95-9.93,4.68-20.97,7.01-31.91,7.52-1.63.26-3.76.06-5.39.09-3.42.05-11.27-.45-14.73-.66,0,0,1.1-18.7,1.1-18.7,8.6.49,18.43,1.28,26.8-.35,2.41-.26,5.99-1.28,8.38-1.86,8-2.54,15.7-6.51,21.92-12.2,17.2-15.2,23.23-40.31,16.8-62.09-4.01-13.73-12.79-25.94-24.39-34.32-2.69-2.11-6.24-4.16-9.19-5.89-1.43-.72-4.5-2.19-5.92-2.91-7.78-3.07-16.87-3.81-25.65-4.51-25.3-1.58-51.48-.42-76.85,1.44,0,0,8.58-9.33,8.58-9.33v196.01s-9.37-9.56-9.37-9.56l76.75-.2c3.33.03,10.99-.02,14.16-.1,56.96-1.65,101.07-52.22,103.01-107.83.36-6.17,1.51-14.74,1.4-20.73-.04-4.31.31-10.16-.92-13.79,0,0-2.94-8.89-2.94-8.89l17.8-5.9s2.93,8.9,2.93,8.9h0Z"/>
          <path class="cls-4" d="M728.73,46.68c-19.78,49.08-44.1,111.35-63.71,160.81-3.52,8.89-12.49,31.63-15.89,40.23-2.19,5.82-4.8,11.09-9.46,15.61-5.41,5.48-13.72,8.27-21.25,8.06-1.1,0-4.26.04-5.41.04-4.56.04-16.91.13-21.63.16-14.52.63-28.5-3.34-34.21-18.2-1.22-2.96-3.59-8.62-4.84-11.65-8.66-20.7-27.15-65.52-35.94-86.56-3.48-8.46-7.34-16.66-12.2-24.33-2.55-4.13-5.16-7.39-8.05-11.59-3.09-4.08-5.98-11.54-8.11-16.4,0,0,17.2-7.42,17.2-7.42,0,0,3.71,8.6,3.71,8.6,1.2,2.86,3.77,6.27,6.76,10.38,3,4.17,5.76,8.59,8.27,13.08,3.73,6.67,6.84,13.54,9.72,20.51,8.83,21.14,27.27,65.77,35.94,86.56,1.52,3.58,3.9,9.52,5.43,13.02,2.71,5.81,10.58,5.26,16.17,5.29,4.77-.04,17.02-.13,21.63-.16,1.13-.03,4.3-.02,5.41-.04,8.12.33,10.88-5.03,13.43-11.82,26.69-67.3,56.1-142.77,83.14-209.86,0,0,17.37,7.02,17.37,7.02,0,0-3.49,8.69-3.49,8.69h0Z"/>
          <path class="cls-4" d="M279.65,30.75s-20.14.49-20.14.49l1.69-.22c-.9.32-1.28.34-1.75.98-.36.42-.87,1.74-1.09,3.64-.27,2.02-.24,4.71-.23,6.86.13,32.57.41,86.58.46,119.36-.19,14.81-.14,32.89-.02,47.69,0,0,.18,31.79.18,31.79.05,4.93.02,9.77-1.71,14.62-1.4,3.99-4.13,7.95-7.69,10.37-14.35,9.04-37.11,4.81-47.37-8.58-.73-.81-20.27-26.97-21.64-28.7-27.91-36.85-67.66-90.43-95.86-126.77,0,0-19.82-24.76-19.82-24.76l14.72-5.17.08,190.35s0,8.26,0,8.26c0,0-16.53,0-16.53,0,0,0,0-8.26,0-8.26,0,0-.08-190.35-.08-190.35.04-7.8,9.86-11.2,14.72-5.17,3.94,5.02,21.47,26.74,24.93,31.14,9.76,12.76,42.5,56.41,52.77,69.94,13.72,18.21,45.86,60.91,59.22,78.63,4.09,5.71,11.44,7.91,18.4,7.59,2.67-.15,5.39-.64,7.29-1.92,2.45-2.57,2.02-7.57,2.05-11.15-.06-10.73-.22-37.44-.27-47.77.2-42.69-.13-100.29-.31-143.14.05-4.94-.3-11.99.33-16.97.9-9.4,7.23-17.79,17.14-18.83,5.51-.07,23.09-.6,28.41-.69,0,0,.4,16.52.4,16.52l-8.26.2h0Z"/>
          <path class="cls-4" d="M489.54,106.76c-.69,0-1.38-.03-2.07-.09-12.45-1.14-21.6-11.81-20.83-24.29.77-12.47,11.15-21.93,23.66-21.54,6.19.2,12.14,2.94,16.32,7.54,4.16,4.56,6.23,10.54,5.84,16.83h0c-.39,6.3-3.19,11.99-7.88,16-4.18,3.58-9.57,5.56-15.04,5.56ZM489.56,72.95c-5.75,0-10.47,4.41-10.83,10.18-.36,5.89,3.96,10.93,9.84,11.47,2.92.27,5.88-.68,8.12-2.59,1.54-1.32,3.42-3.7,3.66-7.55h0c.24-3.83-1.34-6.42-2.7-7.92-1.99-2.18-4.81-3.49-7.74-3.58-.12,0-.24,0-.35,0ZM506.41,84.83h0,0Z"/>
          <path class="cls-4" d="M720.07,49.27c-.43,0-.86-.05-1.29-.14-1.62-.35-3.02-1.35-3.89-2.76l-7.57-12.4c-2.47-4.04-3.19-8.86-2.03-13.56,1.24-5.04,4.48-9.44,8.87-12.07,8.72-5.22,19.7-2.94,25.55,5.29,3.01,4.23,4.21,9.56,3.29,14.63-.9,4.96-3.75,9.29-8.03,12.19h0l-11.51,7.79c-1.01.68-2.2,1.04-3.4,1.04ZM731.58,35.43h0,0ZM724.13,17.7c-1.27,0-2.56.34-3.74,1.05-1.59.95-2.87,2.7-3.33,4.57-.39,1.58-.18,3.04.61,4.34l4.26,6.97,6.25-4.23c1.99-1.35,2.68-3.09,2.9-4.31.34-1.87-.11-3.86-1.24-5.45-1.36-1.92-3.5-2.95-5.71-2.95Z"/>
          <path class="cls-4" d="M295.77,41.24c-.85,0-1.7-.06-2.55-.17-10.21-1.39-17.49-10.51-16.56-20.75.92-10.24,9.72-17.92,20-17.46,5.21.23,10.2,2.64,13.67,6.62,3.42,3.92,5.04,8.99,4.55,14.28h0c-.49,5.32-3.01,10.04-7.08,13.28-3.44,2.73-7.71,4.21-12.04,4.21ZM295.82,14.96c-3.67,0-6.75,2.78-7.09,6.45-.34,3.78,2.35,7.14,6.13,7.65,1.88.25,3.89-.31,5.4-1.51,1.03-.82,2.32-2.34,2.55-4.9.23-2.5-.75-4.2-1.61-5.19-1.29-1.47-3.18-2.4-5.07-2.48-.11,0-.21,0-.32,0ZM308.85,23.2h0,0Z"/>
          <path class="cls-4" d="M662.74,43.57c-14.39-8.93-15.24-29.56-.45-38.78,14.74-9.08,34.05,1.62,34.15,18.93.3,10.7-8.03,20.52-18.38,22.34,0,0,.98-.25.98-.25-2.8.9-3.89.77-5.43,1.69,0,0,3.26-4.29,3.26-4.29l-66.69,178.39c-2.99,8.05-14.58,8.06-17.55-.02,0,0-73.12-196.87-73.12-196.87,0,0,8.77,6.11,8.77,6.11l-49.38-.06c-1.64.02-4.99,0-6.26,0-8.69-7.23-17.74-13.48-28.07-18.64,19.22-.09,63.22-.09,83.74-.03,4.01,0,7.44,2.55,8.77,6.11l73.12,196.87-17.55-.02,66.69-178.39c.67-1.79,1.82-3.24,3.26-4.29,3.35-2.65,8.5-3.86,11.89-4.69,4.24-.77,4.33-6.67.12-7.4-2.71-.55-5.15,2.53-4.04,4.97.32.8,1.13,1.8,2.4,2.6,10.1,7.18.49,22.01-10.19,15.72h0Z"/>
        </g>
        <g>
          <path class="cls-4" d="M19.11,385.12v-58.54h12.05l28,37.25v-37.25h12.73v58.54h-12.05l-28-37.24v37.24h-12.73Z"/>
          <path class="cls-4" d="M83.41,385.12v-58.54h34.78c10.69,5.43,18.16,16.29,18.16,29.27s-7.47,23.84-18.16,29.27h-34.78ZM96.47,374h15.86c6.53-3.48,10.61-10.27,10.61-18.16s-4.07-14.68-10.61-18.15h-15.86v36.31Z"/>
          <path class="cls-4" d="M159.25,385.12l-22.4-58.54h14.25l15.02,40.72,15.02-40.72h13.4l-22.4,58.54h-12.9Z"/>
          <path class="cls-4" d="M212.18,382.91v-11.28c3.22,1.95,9.5,3.56,14,3.56,5.77,0,8.74-2.71,8.74-6.62,0-10.35-22.74-8.65-22.74-26.04,0-8.48,6.19-16.97,20.45-16.97,5,0,10.1.93,13.57,2.97v11.28c-4.33-2.8-8.74-3.65-11.96-3.65-5.85,0-7.89,2.97-7.89,5.94,0,9.42,22.91,8.65,22.91,26.13,0,8.4-5.26,17.73-21.63,17.73-6.28,0-11.62-1.36-15.44-3.05Z"/>
          <path class="cls-4" d="M271.74,368.91c0,3.9,1.78,5.77,5.68,5.77,2.88,0,5-.76,8.57-2.55l-5.09,12.13c-2.29,1.1-4.92,1.7-8.06,1.7-8.23,0-13.83-4.75-13.83-15.53v-14.68h-5.51v-11.03h5.51v-9.67l12.73-2.88v12.56h15.27l-4.5,11.03h-10.77v13.15Z"/>
          <path class="cls-4" d="M290.4,385.12v-40.38h12.13v5.94c2.63-5.52,8.14-6.96,12.9-6.96l.08,14.17c-6.62-1.87-12.39,1.7-12.39,9.67v17.56h-12.73Z"/>
          <path class="cls-4" d="M318.05,365.01c0-11.62,8.31-21.04,19.94-21.04,4.67,0,8.31,1.53,10.86,3.82v-2.88h11.96v40.21h-11.37l-.17-3.22c-2.71,2.46-6.45,4.16-11.28,4.16-11.62,0-19.94-9.42-19.94-21.04ZM349.62,365.01c0-5.77-4.33-9.93-9.59-9.93s-9.5,4.24-9.59,9.93c0,5.68,4.33,9.93,9.59,9.93s9.59-4.24,9.59-9.93Z"/>
          <path class="cls-4" d="M384.82,368.91c0,3.9,1.78,5.77,5.68,5.77,2.88,0,5-.76,8.57-2.55l-5.09,12.13c-2.29,1.1-4.92,1.7-8.06,1.7-8.23,0-13.83-4.75-13.83-15.53v-14.68h-5.51v-11.03h5.51v-9.67l12.73-2.88v12.56h15.27l-4.5,11.03h-10.77v13.15Z"/>
          <path class="cls-4" d="M414.68,368.32c1.61,4.16,6.02,7.04,13.74,7.04,3.99,0,8.57-.76,12.98-2.38l-5.43,11.45c-2.63.93-6.19,1.7-10.27,1.7-14.68,0-23.75-8.91-23.75-21.21s8.91-21.21,21.89-21.21c8.74,0,15.44,4.33,18.58,9.84v14.76h-27.74ZM414.59,360.51h18.83c-1.36-4.24-4.84-6.87-9.42-6.87s-8.06,2.88-9.42,6.87Z"/>
          <path class="cls-4" d="M477.03,378.75c8.74,0,15.27,3.56,15.27,12.98s-6.53,12.56-15.27,12.56h-15.02c-11.37,0-15.78-4.58-15.78-11.03,0-4.07,1.61-7.72,6.28-9.67-1.19-1.61-1.95-3.65-1.95-6.28,0-3.48,1.44-6.28,4.24-8.23-2.71-2.63-4.24-6.19-4.24-10.26,0-8.65,7.04-15.1,17.39-15.1,2.29,0,4.33.34,6.28.85.25-5.17,3.9-9.76,10.86-9.76,1.95,0,3.39.17,4.33.42v10.01c-.76-.26-1.53-.51-2.97-.51-1.87,0-4.84.93-4.84,4.24,2.46,2.63,3.82,6.02,3.82,9.84,0,8.65-7.13,15.02-17.48,15.02-1.95,0-3.73-.25-5.43-.68-1.36.51-1.95,1.53-1.95,2.88,0,1.53,1.19,2.71,3.48,2.71h12.98ZM476.78,395.21c2.63,0,4.5-1.02,4.5-3.39s-1.87-3.31-4.5-3.31h-14.85c-2.54,0-4.5.93-4.5,3.39,0,2.29,1.95,3.31,4.5,3.31h14.85ZM462.35,358.82c0,3.22,2.38,5.6,5.6,5.6s5.68-2.38,5.68-5.6-2.38-5.69-5.68-5.69-5.6,2.38-5.6,5.69Z"/>
          <path class="cls-4" d="M495.1,385.12v-40.38h12.73v40.38h-12.73ZM495.18,337.1v-11.03h12.73v11.03h-12.73Z"/>
          <path class="cls-4" d="M527.76,368.32c1.61,4.16,6.02,7.04,13.74,7.04,3.99,0,8.57-.76,12.98-2.38l-5.43,11.45c-2.63.93-6.19,1.7-10.27,1.7-14.68,0-23.75-8.91-23.75-21.21s8.91-21.21,21.89-21.21c8.74,0,15.44,4.33,18.58,9.84v14.76h-27.74ZM527.67,360.51h18.83c-1.36-4.24-4.84-6.87-9.42-6.87s-8.06,2.88-9.42,6.87Z"/>
          <path class="cls-4" d="M561.44,383.42v-10.6c3.31,1.7,7.47,2.88,10.94,2.88,3.14,0,4.92-.85,4.92-2.8,0-5.68-15.87-3.9-15.87-16.29,0-7.89,6.45-12.89,16.46-12.89,4.41,0,8.14.93,11.71,2.97v10.94c-4.33-2.97-7.47-3.73-10.18-3.73-2.88,0-4.33,1.02-4.33,2.71,0,5.43,16.2,3.31,16.2,16.54,0,7.04-4.58,12.81-16.63,12.81-5.18,0-9.33-1.1-13.24-2.55Z"/>
          <path class="cls-4" d="M614.54,385.12v-58.54h13.07v46.49h19.17v12.05h-32.24Z"/>
          <path class="cls-4" d="M655,385.12v-58.54h13.07v46.49h19.17v12.05h-32.24Z"/>
          <path class="cls-4" d="M691.14,355.85c0-16.8,12.98-30.29,32.49-30.29,5.68,0,10.69.85,14.76,2.63v13.57c-4.84-2.12-8.99-3.39-14.34-3.39-11.62,0-19.26,7.64-19.26,17.48s7.63,17.48,19.26,17.48c5.34,0,9.5-1.27,14.34-3.39v13.57c-4.07,1.78-9.08,2.63-14.76,2.63-19.51,0-32.49-13.49-32.49-30.29Z"/>
        </g>
      </g>
      <g>
        <circle class="cls-2" cx="674" cy="23.84" r="8.49"/>
        <path class="cls-3" d="M674,15.35c4.56,0,8.33,3.62,8.48,8.21.15,4.68-3.52,8.6-8.21,8.75-.09,0-.19,0-.28,0-4.56,0-8.33-3.62-8.48-8.21-.15-4.68,3.52-8.6,8.21-8.75.09,0,.19,0,.28,0M674,1.35c-.24,0-.49,0-.73.01-6,.19-11.57,2.71-15.68,7.09s-6.26,10.1-6.07,16.1c.39,12.2,10.26,21.76,22.47,21.76.24,0,.49,0,.73-.01,6-.19,11.57-2.71,15.68-7.09,4.11-4.38,6.26-10.1,6.07-16.1-.39-12.2-10.26-21.76-22.47-21.76h0Z"/>
      </g>
      <g>
        <circle class="cls-2" cx="22.49" cy="252.93" r="8.49"/>
        <path class="cls-3" d="M22.49,244.45c4.56,0,8.33,3.62,8.48,8.21.15,4.68-3.52,8.6-8.21,8.75-.09,0-.19,0-.28,0-4.56,0-8.33-3.62-8.48-8.21-.15-4.68,3.52-8.6,8.21-8.75.09,0,.19,0,.28,0M22.49,230.45c-.24,0-.49,0-.73.01-6,.19-11.57,2.71-15.68,7.09C1.97,241.93-.18,247.65.01,253.66c.39,12.2,10.26,21.76,22.47,21.76.24,0,.49,0,.73-.01,12.39-.4,22.15-10.81,21.75-23.2-.39-12.2-10.26-21.76-22.47-21.76h0Z"/>
      </g>
      <g>
        <circle class="cls-2" cx="724.03" cy="25.07" r="8.49"/>
        <path class="cls-3" d="M724.04,16.58c4.56,0,8.33,3.62,8.48,8.21.15,4.68-3.52,8.6-8.21,8.75-.09,0-.19,0-.28,0-4.56,0-8.33-3.62-8.48-8.21-.15-4.68,3.52-8.6,8.21-8.75.09,0,.19,0,.28,0M724.04,2.58c-.24,0-.49,0-.73.01-6,.19-11.57,2.71-15.68,7.09-4.11,4.38-6.26,10.1-6.07,16.1.39,12.2,10.26,21.76,22.47,21.76.24,0,.49,0,.73-.01,6-.19,11.57-2.71,15.68-7.1,4.11-4.38,6.26-10.1,6.07-16.1-.39-12.2-10.26-21.76-22.47-21.76h0Z"/>
      </g>
      <g>
        <circle class="cls-2" cx="489.55" cy="83.8" r="8.49"/>
        <path class="cls-1" d="M489.55,75.31c4.56,0,8.33,3.62,8.48,8.21.15,4.68-3.52,8.6-8.21,8.75-.09,0-.19,0-.28,0-4.56,0-8.33-3.62-8.48-8.21-.15-4.68,3.52-8.6,8.21-8.75.09,0,.19,0,.28,0M489.55,60.31c-.25,0-.51,0-.76.01-6.27.2-12.09,2.83-16.38,7.41-4.29,4.58-6.54,10.55-6.34,16.82.41,12.74,10.72,22.73,23.47,22.73.25,0,.51,0,.76-.01,6.27-.2,12.09-2.83,16.38-7.41,4.29-4.58,6.54-10.55,6.34-16.82-.41-12.74-10.72-22.73-23.47-22.73h0Z"/>
      </g>
      <g>
        <circle class="cls-2" cx="295.78" cy="22.49" r="8.49"/>
        <path class="cls-3" d="M295.78,14c4.56,0,8.33,3.62,8.48,8.21.15,4.68-3.52,8.6-8.21,8.75-.09,0-.19,0-.28,0-4.56,0-8.33-3.62-8.48-8.21-.15-4.68,3.52-8.6,8.21-8.75.09,0,.19,0,.28,0M295.78,0c-.24,0-.49,0-.73.01-6,.19-11.57,2.71-15.68,7.09-4.11,4.38-6.26,10.1-6.07,16.1.39,12.2,10.26,21.76,22.47,21.76.24,0,.49,0,.73-.01,6-.19,11.57-2.71,15.68-7.09s6.26-10.1,6.07-16.1c-.39-12.2-10.26-21.76-22.47-21.76h0Z"/>
      </g>
    </g>
    <g>
      <circle class="cls-2" cx="375.81" cy="211.17" r="8.49"/>
      <path class="cls-1" d="M375.82,202.69c4.56,0,8.33,3.62,8.48,8.21.15,4.68-3.52,8.6-8.21,8.75-.09,0-.19,0-.28,0-4.56,0-8.33-3.62-8.48-8.21-.15-4.68,3.52-8.6,8.21-8.75.09,0,.19,0,.28,0M375.82,187.69c-.25,0-.51,0-.76.01-12.94.42-23.13,11.29-22.72,24.23.41,12.74,10.72,22.73,23.47,22.73.25,0,.51,0,.76-.01,6.27-.2,12.09-2.83,16.38-7.41,4.29-4.58,6.54-10.55,6.34-16.82-.41-12.74-10.72-22.73-23.47-22.73h0Z"/>
    </g>
  </g>
</svg>