<?xml version="1.0" encoding="UTF-8"?>
<svg id="Layer_2" data-name="Layer 2" xmlns="http://www.w3.org/2000/svg" width="1000" height="1000" viewBox="0 0 1000 1000">
  <rect width="1002.32" height="1002.32" rx="100" ry="100" fill="#ede9fe"/>
  <g>
    <path d="M726.33,151.17l-2.1,430.03c-.06,13.14-10.77,23.74-23.91,23.68-7.15-.03-13.62-3.3-17.96-8.32-30.51-35.62-59.8-72.17-88.41-108.98-48.99-64.17-120.11-155.88-169.7-220.97,0,0-42.38-55.23-42.38-55.23-10.36-12.83-27.66-38.7-40.93-47.52,0,0,14.32,4.64,14.32,4.64l-128,1.05-7.99.07c-9.07,0-18.63,5.99-21.59,14.41-.22.44-.49,1.24-.57,1.72-.51,1.56-.67,3.26-.75,4.9-.02.15-.04.26-.03.66l-.11,16.01c-.18,59.93-1.77,164.37-1.73,223.8,1.64,90.03-.31,186.18.83,276.16-.09,12.49-1.69,29.09.56,39.41,9.56,30.06-11.98,40.52-29.83,58.12-3.96,4.33-7.14,7.78-7.64,12.25,1.11,16.49,23.59,20.17,28.2,3.42,1.81-9.09-3.96-16.08-13.71-17.76-2.78-.47-5.37-1.39-7.69-2.72-8.55-4.81-27.16-15.26-35.84-20.14l23.32-41.49c8.69,4.85,27.26,15.34,35.84,20.14,0,0-7.69-2.72-7.69-2.72,7.82,1.32,15.73,4.01,23.01,8.28,22.91,12.79,35.29,41.16,29.21,66.79-7.28,35.38-47.03,57.36-80.84,44.58-25.52-9.47-41.89-33.36-41.35-60.48.56-17.15,10.24-32.48,21.05-43.32,6.92-7.25,14.97-13.17,21.1-19.51,0,0-.31.39-.38.62-.16.26-.37.62-.51.95l-.53,1.34c-.23.63-.4,1.28-.51,1.93-.59,2.62-.51,5.69.29,8.39-4.33-14.58-4.86-32.25-3.98-47.16.21-4.46.34-10.58.31-14.92-.77-67.62-.19-140.77-.03-208.08-1.87-86.04.64-201.73.93-288.23,0,0,.11-15.99.11-15.99l.04-1.33.08-1.54.19-3.08c.51-6.13,1.98-12.28,4.2-18.02,10.19-27.07,37.22-44.73,65.61-44.96,0,0,8.01-.07,8.01-.07.05,0,128-1.05,128.05-1.05,12.9-.1,21.65,10.78,30.25,18.6,12.85,13.04,23.27,28.91,34.46,42.9,65.45,85.46,146.55,191.11,211.88,275.96,28.35,36.47,57.13,72.37,87,107.25l-41.87,15.36,2.1-430.03.12-23.8,47.59.23-.12,23.8h0Z" fill="#4c1d95"/>
    <path d="M849.75,127.03c0,6.56.64,55.43.64,61.88,0,5.88.05,13.56.09,19.75.38,93.79,1.17,249.29,1.32,343.67-.56,42.63-.41,94.7-.06,137.33,0,0,.52,91.52.52,91.52.16,14.2.06,28.12-4.93,42.11-4.03,11.49-11.88,22.89-22.15,29.87-41.31,26.03-106.84,13.85-136.39-24.7-2.12-2.34-58.36-77.67-62.3-82.64-80.36-106.09-194.83-260.37-276-365.01,0,0-57.08-71.3-57.08-71.3l42.37-14.88.23,548.09v23.8s-47.58.02-47.58.02v-23.8s-.24-548.09-.24-548.09c.1-22.47,28.39-32.25,42.37-14.88,11.33,14.46,61.82,77.01,71.78,89.67,28.09,36.74,122.38,162.42,151.95,201.38,39.49,52.42,132.04,175.37,170.51,226.41,11.77,16.45,32.94,22.78,52.98,21.87,7.69-.42,15.53-1.85,20.98-5.54,7.04-7.41,5.8-21.8,5.92-32.1-.17-30.89-.63-107.8-.79-137.54.56-122.91-.37-288.77-.9-412.16.13-14.22.95-34.42.95-48.87,0-26.97-.09-21.38-.09-55.93" fill="#4c1d95"/>
    <g>
      <circle cx="171.98" cy="807.11" r="27.16" fill="#ede9fe"/>
      <path d="M172,779.95c14.6,0,26.66,11.59,27.13,26.29.48,14.99-11.28,27.54-26.27,28.03-.3,0-.6.01-.89.01-14.6,0-26.66-11.59-27.13-26.29-.48-14.99,11.28-27.54,26.27-28.03.3,0,.6-.01.89-.01M172,735.13c-.78,0-1.56.01-2.34.04-19.22.62-37.04,8.69-50.19,22.71-13.15,14.03-20.05,32.34-19.43,51.55,1.26,39.06,32.86,69.66,71.93,69.66.77,0,1.56-.01,2.34-.04,39.67-1.28,70.9-34.6,69.62-74.27-1.26-39.06-32.85-69.66-71.93-69.66h0Z" fill="#732ce2"/>
    </g>
    <g>
      <circle cx="828.02" cy="295.89" r="27.16" fill="#ede9fe"/>
      <path d="M828.03,268.72c14.6,0,26.66,11.59,27.13,26.29.48,14.99-11.28,27.54-26.27,28.03-.3,0-.6.01-.89.01-14.6,0-26.66-11.59-27.13-26.29-.48-14.99,11.28-27.54,26.27-28.03.3,0,.6-.01.89-.01M828.04,223.9c-.78,0-1.56.01-2.34.04-19.22.62-37.04,8.69-50.19,22.71-13.15,14.03-20.05,32.34-19.43,51.55,1.26,39.06,32.86,69.66,71.93,69.66.77,0,1.56-.01,2.34-.04,39.67-1.28,70.9-34.6,69.62-74.27-1.26-39.06-32.85-69.66-71.93-69.66h0Z" fill="#732ce2"/>
    </g>
  </g>
</svg>